<?xml version="1.0" encoding="utf-8"?>
<!-- Generator: Adobe Illustrator 25.0.1, SVG Export Plug-In . SVG Version: 6.00 Build 0)  -->
<svg version="1.1" id="Layer_1" xmlns="http://www.w3.org/2000/svg" xmlns:xlink="http://www.w3.org/1999/xlink" x="0px" y="0px"
	 viewBox="0 0 108 108" style="enable-background:new 0 0 108 108;" xml:space="preserve">
<style type="text/css">
	.st0{fill-rule:evenodd;clip-rule:evenodd;fill:#EB5D57;stroke:#FFFFFF;stroke-width:7;stroke-miterlimit:10;}
	.st1{fill:#FFFFFF;}
	.st2{fill-rule:evenodd;clip-rule:evenodd;fill:#FFFFFF;}
</style>
<g id="layer3">
	<circle id="path80" class="st0" cx="54" cy="54" r="50"/>
</g>
<g id="layer2">
	<path id="path25" class="st1" d="M88.1,37.2c-0.3,0-0.6,0.1-0.8,0.2c-0.5,0.2-0.9,0.7-1.2,1.2c-0.4,0.7-0.3,1.5-0.5,2.2
		c-0.5,3.1-1.3,9.3-1.3,9.3s0.8,0.1,1.2,0.3c0.5,0.2,1,0.6,1.2,1.1c0.2,0.5,0.1,1.2-0.1,1.8c-0.4,1.1-1.2,1.9-1.9,2.8
		c-1,1.3-1.9,2.7-3,3.9c-1.2,1.4-2.4,2.7-3.8,3.9c-0.5,0.5-1.7,1.3-1.7,1.3l-1-0.4c0,0,2.7-2.9,4-4.4c1-1.1,1.9-2.3,2.8-3.5
		c0,0,1.6-2.3,2.3-3.5c0.1-0.2,0.4-0.5,0.4-0.7c0-0.2-0.1-0.4-0.2-0.5c-0.3-0.3-0.8-0.5-1.2-0.5c-0.7-0.1-1.4,0-2,0.3
		c-0.8,0.3-1.5,0.8-2.2,1.3c-0.7,0.5-1.4,1.1-2,1.8c-1,0.9-1.8,2.1-3,2.9c-3.1,2.1-6.9,3-10.3,4.5c-1.6,0.7-3.3,1.4-4.8,2.3
		c-0.8,0.4-1.6,0.9-2.3,1.5c-0.4,0.3-0.8,0.7-1.1,1.1c-0.6,0.9-1.1,1.9-1.4,3c-0.3,1.4-0.4,2.8-0.4,4.2c0-1.4-0.1-2.7-0.4-4.1
		c-0.2-1.1-0.7-2.1-1.4-3c-0.3-0.4-0.7-0.8-1.1-1.1c-0.7-0.6-1.5-1.1-2.3-1.5c-1.6-0.9-3.2-1.5-4.8-2.3c-3.4-1.5-7.2-2.4-10.3-4.5
		c-1.1-0.8-1.9-1.9-3-2.9c-0.7-0.6-1.3-1.2-2-1.8c-0.7-0.5-1.4-1-2.2-1.3c-0.6-0.2-1.3-0.4-2-0.3c-0.4,0.1-0.9,0.2-1.2,0.5
		c-0.1,0.1-0.2,0.3-0.2,0.5c0,0.3,0.3,0.5,0.4,0.7c0.7,1.2,2.3,3.5,2.3,3.5c0.9,1.2,1.8,2.3,2.8,3.5c1.3,1.5,4,4.4,4,4.4l-1,0.4
		c0,0-1.1-0.8-1.7-1.3c-1.3-1.2-2.6-2.5-3.8-3.9c-1.1-1.2-2.1-2.6-3-3.9c-0.7-0.9-1.5-1.8-1.9-2.8c-0.2-0.6-0.3-1.2-0.1-1.8
		c0.2-0.5,0.7-0.8,1.2-1.1c0.4-0.2,1.2-0.3,1.2-0.3s-0.8-6.2-1.3-9.3c-0.1-0.7-0.1-1.5-0.5-2.2c-0.3-0.5-0.7-0.9-1.2-1.2
		c-0.4-0.2-0.9-0.3-1.3-0.2c-0.3,0.1-0.6,0.5-0.7,0.8c-1.7,4.8-0.9,10.3,0.2,15.3c0.7,3.1,2.4,5.9,3.8,8.7c1.2,2.3,2.1,4.9,3.9,6.8
		c4.3,4.3,15.6,9.3,15.6,9.3s0.9,4.8,2.1,6.8c0.4,0.7,1,1.2,1.6,1.7c0.8,0.5,1.7,0.9,2.6,1.1c0.8,0.2,1.6,0.5,2.5,0.5
		c0.7,0,1.5-0.1,2.1-0.6c0.5-0.4,0.8-0.9,1-1.5c0.1-0.2,0.1-0.4,0.1-0.5c0,0.1,0.1,0.3,0.1,0.4c0.2,0.6,0.5,1.2,1,1.5
		c0.6,0.4,1.4,0.5,2.1,0.6c0.8,0,1.7-0.2,2.5-0.5c0.9-0.3,1.9-0.6,2.6-1.1c0.6-0.4,1.2-1,1.6-1.7c1.2-2.1,2.1-6.8,2.1-6.8
		s11.3-5,15.6-9.3c1.8-1.9,2.8-4.5,3.9-6.8c1.4-2.8,3.1-5.6,3.8-8.7c1.1-5,1.9-10.5,0.2-15.3c-0.1-0.3-0.3-0.7-0.7-0.8
		C88.4,37.2,88.2,37.2,88.1,37.2z"/>
	<path id="path27" class="st1" d="M73.8,55.7c0,0-0.1-3.3,0.2-4.9c0.2-1.1,0.5-2.2,1-3.2c0.3-0.6,0.6-1.4,1.2-1.8
		c0.7,0.4,0,2.2-0.1,2.7c-0.1,1.1-0.2,2.2-0.3,3.2c-0.1,0.8-0.2,2.3-0.2,2.3s-0.7,0.5-1,0.8C74.3,55.1,73.8,55.7,73.8,55.7
		L73.8,55.7z"/>
	<path id="path29" class="st1" d="M79,51.4l0.5-5.4c0,0,0.2-2.1,0.5-3.2c0.1-0.2,0.2-0.4,0.2-0.7c-0.1-0.2-0.2-0.3-0.4-0.3
		c-0.3,0-0.6,0.2-0.9,0.4c-0.4,0.4-0.8,1.5-0.8,1.5l-0.6,2c0,0-0.3,1.5-0.4,2.3c-0.1,0.6-0.2,1.3-0.2,1.9c-0.1,0.7-0.2,1.3-0.2,2
		c0,0.4-0.1,1.3-0.1,1.3s0.6-0.8,1-1.1C78.1,51.8,79,51.4,79,51.4z"/>
	<path id="path31" class="st1" d="M83,50.2c0,0,0-2.4,0.1-3.6c0.1-1.1,0.2-2.2,0.3-3.3c0.1-0.7,0.2-1.5,0.4-2.2
		c0.1-0.5,0.2-1,0.4-1.5c0.1-0.2,0.2-0.4,0.2-0.6c0-0.2-0.2-0.5-0.2-0.5s-0.5-0.3-0.7-0.2c-0.5,0.1-0.8,0.4-1.2,1.1
		c-0.9,1.3-1.1,2.9-1.3,4.2c-0.2,1.1-0.3,2.2-0.4,3.3c-0.1,0.9-0.2,1.9-0.3,2.8c0,0.4-0.1,1.2-0.1,1.2s0.7-0.4,1.2-0.6
		C81.8,50.1,83,50.2,83,50.2L83,50.2z"/>
	<path id="path27-6" class="st1" d="M33.7,55.8c0,0,0.1-3.3-0.2-4.9c-0.2-1.1-0.5-2.2-1-3.2c-0.3-0.6-0.6-1.4-1.2-1.8
		c-0.7,0.4,0,2.2,0.1,2.7c0.1,1.1,0.2,2.2,0.3,3.2c0.1,0.8,0.2,2.3,0.2,2.3s0.7,0.5,1,0.8C33.3,55.2,33.7,55.8,33.7,55.8L33.7,55.8z
		"/>
	<path id="path29-8" class="st1" d="M28.5,51.5L28,46c0,0-0.2-2.1-0.5-3.2c-0.1-0.2-0.2-0.4-0.2-0.7c0.1-0.2,0.2-0.3,0.4-0.3
		c0.3,0,0.6,0.2,0.9,0.4c0.4,0.4,0.8,1.5,0.8,1.5l0.6,2c0,0,0.3,1.5,0.4,2.3c0.1,0.6,0.2,1.3,0.2,1.9c0.1,0.7,0.2,1.3,0.2,2
		c0,0.4,0.1,1.3,0.1,1.3s-0.6-0.8-1-1.1C29.5,51.9,28.5,51.5,28.5,51.5L28.5,51.5z"/>
	<path id="path31-4" class="st1" d="M24.5,50.2c0,0,0-2.4-0.1-3.6c-0.1-1.1-0.2-2.2-0.3-3.3c-0.1-0.7-0.2-1.5-0.4-2.2
		c-0.1-0.5-0.2-1-0.4-1.5c-0.1-0.2-0.2-0.4-0.2-0.6c0-0.2,0.2-0.5,0.2-0.5s0.5-0.3,0.7-0.2c0.5,0.1,0.8,0.4,1.2,1.1
		c0.9,1.3,1.1,2.9,1.3,4.2c0.2,1.1,0.3,2.2,0.4,3.3c0.1,0.9,0.2,1.9,0.3,2.8c0,0.4,0.1,1.2,0.1,1.2s-0.7-0.4-1.2-0.6
		C25.7,50.2,24.5,50.2,24.5,50.2L24.5,50.2z"/>
	<path id="path933" class="st2" d="M54.1,16.8c-6.9,0-12.5,5.6-12.5,12.5c0.2,9,11,19,12.4,34.6c1.6-15.6,12.7-27.2,12.7-34.6
		C66.7,22.4,61.1,16.8,54.1,16.8z M53.9,23.6C53.9,23.6,53.9,23.6,53.9,23.6c3.2,0,5.9,2.6,5.9,5.9l0,0c0,3.2-2.6,5.9-5.9,5.9l0,0
		c-3.2,0-5.9-2.6-5.9-5.9l0,0C48.1,26.3,50.7,23.7,53.9,23.6z"/>
</g>
</svg>
